# xmcd
#
# Track frame offsets:
#	150
#	16377
#	26050
#	44884
#	59644
#	77612
#	95948
#	111982
#	133012
#	151827
#	166652
#	179309
#
# Disc length: 2771 seconds
#
# Revision: 1
# Processed by: cddbd v1.5.2PL0 Copyright (c) Steve Scherf et al.
# Submitted via: audiograbber 1.83.01
#
DISCID=a20ad10c
DTITLE=The Suitcase Brothers - Living With The Blues
DYEAR=1900
DGENRE=Blues
TTITLE0=Living With The Blues
TTITLE1=Step It Up And Go
TTITLE2=I'm Stranger Here
TTITLE3=Pigmeat
TTITLE4=Black Rat Swing
TTITLE5=The Blues Will Do Your Heart Good
TTITLE6=Sweet Lolita
TTITLE7=Guess I'll Walk Alone
TTITLE8=Roberta
TTITLE9=Guitar Rag
TTITLE10=Cornbread, Peas and Black Molasses
TTITLE11=Down By The Riverside
EXTD=
EXTT0=
EXTT1=
EXTT2=
EXTT3=
EXTT4=
EXTT5=
EXTT6=
EXTT7=
EXTT8=
EXTT9=
EXTT10=
EXTT11=
PLAYORDER=
